<svg width="100%" height="100%" viewBox="0 0 180 40" fill="none" xmlns="http://www.w3.org/2000/svg">
<path d="M6.94483 6.18108V5.74892H14.6372V30.2955C14.6372 32.5715 14.1763 34.0985 13.2543 34.8764C12.3324 35.6254 10.9351 36 9.0624 36C7.21853 36 5.57633 35.7263 4.1358 35.1789L4.26545 34.8332C5.64836 35.3806 7.07448 35.6543 8.54381 35.6543C9.52337 35.6543 10.1716 35.2365 10.4885 34.401C10.8343 33.5655 11.0071 32.2114 11.0071 30.3387V6.18108H6.94483Z" fill="black"/>
<path d="M31.3604 36.1728C28.3353 36.1728 25.872 35.3085 23.9705 33.5799C22.069 31.8513 21.1183 29.1863 21.1183 25.585C21.1183 21.9837 22.0978 19.189 24.0569 17.2011C26.0449 15.2132 28.5514 14.2192 31.5765 14.2192C34.6304 14.2192 37.1081 15.0835 39.0096 16.8122C40.9111 18.5408 41.8618 21.2058 41.8618 24.8071C41.8618 28.4084 40.8679 31.203 38.88 33.191C36.9208 35.1789 34.4143 36.1728 31.3604 36.1728ZM31.6629 14.5649C29.4733 14.5649 27.6583 15.5445 26.2177 17.5036C24.7772 19.4339 24.0569 22.1421 24.0569 25.6282C24.0569 29.0855 24.7196 31.6496 26.0449 33.3206C27.3701 34.9916 29.1276 35.8271 31.3172 35.8271C33.5068 35.8271 35.3219 34.862 36.7624 32.9317C38.2029 30.9725 38.9232 28.2644 38.9232 24.8071C38.9232 21.321 38.2605 18.7425 36.9352 17.0715C35.61 15.4004 33.8525 14.5649 31.6629 14.5649Z" fill="black"/>
<path d="M64.3357 36C63.1545 36 62.247 35.7407 61.6131 35.2221C61.0081 34.7035 60.6912 34.1849 60.6624 33.6663L60.6192 32.9317V19.3619C60.6192 17.0859 60.0142 15.6309 58.8041 14.9971C58.2279 14.709 57.4932 14.5649 56.6001 14.5649C54.8139 14.5649 53.2005 15.2996 51.7599 16.7689C50.3482 18.2095 49.6424 19.5059 49.6424 20.6584V36H46.6173V3.63135H49.6424V19.3187C50.1033 18.0798 50.9821 16.9274 52.2785 15.8614C53.575 14.7666 55.0299 14.2192 56.6433 14.2192C59.438 14.2192 61.2962 14.709 62.2182 15.6886C63.1689 16.6393 63.6443 17.8782 63.6443 19.4051V32.9317C63.6443 33.7672 63.8027 34.4154 64.1197 34.8764C64.4654 35.3085 64.7967 35.539 65.1136 35.5678L65.6322 35.6543H66.9719V36H64.3357Z" fill="black"/>
<path d="M89.0177 36C87.8365 36 86.9289 35.7407 86.2951 35.2221C85.6901 34.7035 85.3732 34.1849 85.3444 33.6663L85.3011 32.9317V19.3619C85.3011 17.0859 84.7105 15.6309 83.5293 14.9971C82.9243 14.709 82.1752 14.5649 81.2821 14.5649C79.4382 14.5649 77.7816 15.2996 76.3123 16.7689C74.8429 18.2095 74.1083 19.5059 74.1083 20.6584V36H71.0831V14.3921H74.1083V19.3187C74.598 18.0798 75.5056 16.9274 76.8308 15.8614C78.1561 14.7666 79.6111 14.2192 81.1956 14.2192C82.7802 14.2192 84.0623 14.3777 85.0418 14.6946C86.0502 14.9827 86.7849 15.4004 87.2458 15.9478C87.9661 16.841 88.3262 17.9934 88.3262 19.4051V32.9317C88.3262 33.7672 88.4847 34.4154 88.8016 34.8764C89.1473 35.3085 89.4931 35.539 89.8388 35.5678L90.3142 35.6543H91.6539V36H89.0177Z" fill="black"/>
<path d="M108.457 6.08643C109.725 6.02881 110.964 6 112.174 6C113.413 6 114.709 6.12965 116.063 6.38894C117.446 6.64824 118.8 7.13802 120.126 7.85828C121.48 8.54973 122.618 9.45726 123.54 10.5809C124.49 11.6757 125.254 13.1306 125.83 14.9457C126.406 16.7607 126.694 18.9647 126.694 21.5577C126.694 24.1506 126.262 26.4843 125.398 28.5586C124.562 30.6042 123.41 32.1744 121.941 33.2692C119.088 35.4011 115.645 36.4671 111.612 36.4671C110.2 36.4671 108.717 36.4095 107.161 36.2943H105V6.08643H108.457ZM108.587 35.9485C109.192 36.0062 109.955 36.035 110.877 36.035C111.799 36.035 112.491 36.0206 112.952 35.9918C113.413 35.963 114.047 35.8477 114.853 35.646C115.66 35.4156 116.409 35.113 117.1 34.7385C117.792 34.364 118.512 33.8166 119.261 33.0963C120.039 32.3472 120.702 31.4685 121.249 30.4601C122.488 28.0977 123.107 25.0149 123.107 21.212C123.107 18.5038 122.776 16.1701 122.113 14.211C121.451 12.2231 120.687 10.7537 119.823 9.80299C118.988 8.85224 117.965 8.10317 116.755 7.55577C115.545 6.97956 114.58 6.64824 113.859 6.56181C113.139 6.47537 112.303 6.43216 111.353 6.43216C110.402 6.43216 109.48 6.47537 108.587 6.56181V35.9485Z" fill="#69AE96"/>
<path d="M142.558 36.4671C139.532 36.4671 137.069 35.6028 135.168 33.8742C133.266 32.1456 132.315 29.4806 132.315 25.8793C132.315 22.2779 133.295 19.4833 135.254 17.4954C137.242 15.5075 139.749 14.5135 142.774 14.5135C145.828 14.5135 148.305 15.3778 150.207 17.1065C152.108 18.8351 153.059 21.5001 153.059 25.1014C153.059 28.7027 152.065 31.4973 150.077 33.4852C148.118 35.4732 145.611 36.4671 142.558 36.4671ZM142.86 14.8592C140.67 14.8592 138.855 15.8388 137.415 17.7979C135.974 19.7282 135.254 22.4364 135.254 25.9225C135.254 29.3797 135.917 31.9439 137.242 33.6149C138.567 35.2859 140.325 36.1214 142.514 36.1214C144.704 36.1214 146.519 35.1563 147.96 33.226C149.4 31.2668 150.12 28.5586 150.12 25.1014C150.12 21.6153 149.458 19.0368 148.132 17.3658C146.807 15.6947 145.05 14.8592 142.86 14.8592Z" fill="#69AE96"/>
<path d="M161.165 25.7496C161.165 29.3221 161.784 31.9439 163.023 33.6149C164.291 35.2859 165.948 36.1214 167.993 36.1214C170.874 36.1214 173.438 35.6893 175.686 34.8249L175.815 35.1274C173.51 36.0206 170.903 36.4671 167.993 36.4671C165.112 36.4671 162.764 35.6028 160.949 33.8742C159.134 32.1456 158.226 29.4806 158.226 25.8793C158.226 22.2779 159.177 19.4833 161.079 17.4954C162.98 15.5075 165.4 14.5135 168.339 14.5135C170.701 14.5135 172.689 15.2194 174.303 16.6311C175.916 18.0428 176.723 20.1316 176.723 22.8974C176.723 23.0414 176.723 23.1855 176.723 23.3295H161.295C161.208 24.1074 161.165 24.9141 161.165 25.7496ZM173.784 22.9838C173.755 20.218 173.222 18.1724 172.185 16.8472C171.148 15.5219 169.808 14.8592 168.166 14.8592C166.524 14.8592 165.054 15.5795 163.758 17.02C162.49 18.4606 161.684 20.4485 161.338 22.9838H173.784Z" fill="#69AE96"/>
</svg>
